<svg xmlns="http://www.w3.org/2000/svg" version="1.1" xmlns:xlink="http://www.w3.org/1999/xlink" width="16" height="16"><svg width="16" height="16" viewBox="0 0 16 16" fill="none" xmlns="http://www.w3.org/2000/svg">
<g clip-path="url(#clip0_2330_2504)">
<rect width="16" height="16" fill="white"></rect>
<path d="M5.13426 11V10.6855C5.40846 10.6747 5.61276 10.6532 5.74716 10.621C5.88157 10.5833 5.97028 10.5188 6.01329 10.4274C6.0563 10.3306 6.07781 10.1855 6.07781 9.99194V6.29839C6.07781 6.10484 6.0563 5.96237 6.01329 5.87097C5.97028 5.77419 5.88157 5.70699 5.74716 5.66936C5.61276 5.63172 5.40846 5.61022 5.13426 5.60484V5.29032C5.29018 5.2957 5.47566 5.30108 5.69071 5.30645C5.90577 5.30645 6.16652 5.30645 6.47297 5.30645C6.62351 5.30645 6.77405 5.30645 6.92458 5.30645C7.0805 5.30108 7.22566 5.29839 7.36007 5.29839C7.49448 5.29301 7.60738 5.29032 7.69878 5.29032C8.71491 5.29032 9.48104 5.52151 9.99716 5.98387C10.5187 6.44624 10.7794 7.12634 10.7794 8.02419C10.7794 8.65323 10.6558 9.19086 10.4085 9.6371C10.1611 10.078 9.8063 10.4167 9.34394 10.6532C8.88157 10.8844 8.31975 11 7.65845 11C7.52405 11 7.36007 10.9973 7.16652 10.9919C6.97297 10.9812 6.74448 10.9758 6.48104 10.9758C6.21759 10.9758 5.96491 10.9785 5.72297 10.9839C5.48641 10.9892 5.29018 10.9946 5.13426 11ZM7.59394 10.7016C8.39501 10.7016 8.98104 10.4973 9.352 10.0887C9.72297 9.67473 9.90845 9.02419 9.90845 8.1371C9.90845 7.23925 9.72566 6.5914 9.36007 6.19355C8.99448 5.7957 8.40577 5.59677 7.59394 5.59677H6.89233V10.0081C6.89233 10.2016 6.90846 10.3495 6.94071 10.4516C6.97835 10.5484 7.04555 10.6156 7.14233 10.6532C7.24448 10.6855 7.39501 10.7016 7.59394 10.7016Z" fill="black"></path>
</g>
<defs>
<clipPath id="SvgjsClipPath1001">
<rect width="16" height="16" fill="white"></rect>
</clipPath>
</defs>
</svg><style>@media (prefers-color-scheme: light) { :root { filter: none; } }
@media (prefers-color-scheme: dark) { :root { filter: none; } }
</style></svg>